<?xml version="1.0" standalone="no"?><!DOCTYPE svg PUBLIC "-//W3C//DTD SVG 1.1//EN" "http://www.w3.org/Graphics/SVG/1.1/DTD/svg11.dtd"><svg t="1580285528869" class="icon" viewBox="0 0 1024 1024" version="1.1" xmlns="http://www.w3.org/2000/svg" p-id="843" xmlns:xlink="http://www.w3.org/1999/xlink" width="200" height="200"><defs><style type="text/css"></style></defs><path d="M829.44 907.093333H236.373333c-23.466667 0-42.666667-19.2-42.666666-42.666666s19.2-42.666667 42.666666-42.666667h593.066667c23.466667 0 42.666667 19.2 42.666667 42.666667s-19.2 42.666667-42.666667 42.666666zM375.04 744.96c-2.133333 0-4.266667 0-5.973333-0.426667l-123.733334-17.92a42.069333 42.069333 0 0 1-35.84-35.84l-17.92-123.733333c-2.133333-13.226667 2.56-26.88 11.946667-36.266667l375.04-375.04a42.496 42.496 0 0 1 60.16 0l141.653333 141.653334c16.64 16.64 16.64 43.52 0 60.16L405.333333 732.586667a42.24 42.24 0 0 1-30.293333 12.373333z m-86.186667-98.56l71.253334 10.24 329.386666-329.386667-81.493333-81.493333-329.386667 329.386667 10.24 71.253333z" p-id="844" fill="#8a8a8a"></path></svg>